<svg width="111" height="61" viewBox="0 0 111 61" fill="none" xmlns="http://www.w3.org/2000/svg">
<path d="M67.9904 0.970947V22.401L46.1104 53.581L46.1004 53.591L42.6904 58.451V37.011L67.9904 0.970947Z" fill="url(#paint0_linear_88_39)"/>
<path d="M109.7 0.641113V60.0611H84.4004V36.6811L109.7 0.641113Z" fill="url(#paint1_linear_88_39)"/>
<path d="M68.68 0.000976562L65.39 2.88097L65.38 2.89098C65.3467 2.91365 65.3164 2.94054 65.29 2.97098H65.28L2.06998 58.361H2.06098C2.03098 58.39 2.01098 58.41 2.00098 58.41V58.421C1.98683 58.4299 1.97345 58.4399 1.96098 58.451L0.000976562 60.171L5.04098 53.001C5.06098 52.961 5.09098 52.931 5.11098 52.891L42.241 0.000976562H68.68Z" fill="url(#paint2_linear_88_39)"/>
<path d="M68.68 0.000976562L67.99 0.970978L42.69 37.011L26.44 60.171H0L2.06 58.361H2.07L65.28 2.97098L67.99 0.600968L68.68 0.000976562Z" fill="url(#paint3_linear_88_39)"/>
<path d="M110.161 0.000976562L109.701 0.400971L105.621 3.98198L105.611 3.99198L105.571 4.02097C105.561 4.04197 105.551 4.04197 105.541 4.05197C105.531 4.06198 105.531 4.06197 105.521 4.06197V4.07198L105.441 4.13198C105.406 4.15522 105.372 4.18203 105.341 4.21198L84.4014 22.562L67.9914 36.942L44.8514 57.202L44.7714 57.282C44.7438 57.3112 44.7137 57.338 44.6814 57.362L42.6914 59.102L41.4814 60.172L42.6914 58.452L46.1014 53.592L46.1114 53.582L67.9914 22.401L83.7214 0.000976562H110.161Z" fill="url(#paint4_linear_88_39)"/>
<path d="M110.161 0.000976562L109.701 0.640976L84.4015 36.681L67.9915 60.061L67.9215 60.171H41.4805L42.6905 59.101L44.8505 57.201L67.9905 36.941L84.4005 22.561L105.34 4.21097L105.44 4.13097L105.45 4.12098L105.52 4.07097V4.06098C105.53 4.06098 105.53 4.05098 105.54 4.05098L109.7 0.399979L110.161 0.000976562Z" fill="url(#paint5_linear_88_39)"/>
<g style="mix-blend-mode:multiply" opacity="0.24">
<g style="mix-blend-mode:multiply">
<path d="M67.9904 0.970947V20.021L42.6904 39.081V37.011L67.9904 0.970947Z" fill="black"/>
</g>
</g>
<g style="mix-blend-mode:multiply" opacity="0.24">
<g style="mix-blend-mode:multiply">
<path d="M109.7 0.641113V19.4711L109.55 19.5811L84.4004 38.5311V36.6811L109.7 0.641113Z" fill="black"/>
</g>
</g>
<g style="mix-blend-mode:overlay">
<g style="mix-blend-mode:overlay">
<path d="M65.2796 2.97095L2.06957 58.361C2.05957 58.371 2.05957 58.361 2.05957 58.361C2.33957 58.081 3.21957 57.241 4.57957 55.951C6.26957 54.381 8.64957 52.091 11.5696 49.431C14.4896 46.771 17.8796 43.631 21.5596 40.341C25.2396 37.03 29.1896 33.551 33.1496 30.061C35.1296 28.331 37.1196 26.601 39.0796 24.9C41.0396 23.199 42.9796 21.541 44.8496 19.931C48.5996 16.711 52.1596 13.78 55.1796 11.221C58.1996 8.66195 60.7796 6.62095 62.5596 5.14995L65.2796 2.97095Z" fill="white"/>
</g>
</g>
<g style="mix-blend-mode:overlay">
<g style="mix-blend-mode:overlay">
<path d="M102.9 6.14995C104.09 5.19995 104.93 4.52994 105.34 4.21094L84.3996 22.561L67.9896 36.941L44.8496 57.201C45.1796 56.881 45.9996 56.101 47.1996 54.95C48.8196 53.441 51.0996 51.241 53.9096 48.681C56.7196 46.121 59.9596 43.111 63.4996 39.941C67.0396 36.771 70.8296 33.421 74.6196 30.071C76.5296 28.4 78.4396 26.741 80.3196 25.111C82.1996 23.481 84.0696 21.881 85.8696 20.341C89.4696 17.251 92.8996 14.431 95.7996 11.981C98.6996 9.53095 101.19 7.56095 102.9 6.14995Z" fill="white"/>
</g>
</g>
<g style="mix-blend-mode:screen" opacity="0.4">
<g style="mix-blend-mode:screen">
<path d="M105.54 4.05103C105.54 4.06103 105.53 4.06102 105.52 4.07102L105.44 4.13102C105.465 4.10491 105.491 4.08145 105.52 4.06102C105.53 4.06102 105.53 4.05103 105.54 4.05103Z" fill="white"/>
</g>
</g>
<g style="mix-blend-mode:multiply" opacity="0.25">
<g style="mix-blend-mode:multiply">
<path d="M68.68 0.000976562C68.45 0.360977 68.22 0.710975 67.99 1.06098C66.55 3.27998 65.09 5.48098 63.64 7.69098C61.96 10.251 60.24 12.791 58.52 15.331C55.1 20.4097 51.65 25.4697 48.17 30.511L42.92 38.061L42.69 38.391V37.011L26.44 60.171H0C4.4 59.981 8.81 59.9 13.22 59.761L26.09 59.541C27.75 57.091 29.44 54.66 31.11 52.221L36.35 44.681L41.63 37.15L46.94 29.65C50.49 24.66 54.08 19.6933 57.71 14.75C59.51 12.279 61.31 9.79998 63.15 7.34998C64.99 4.89998 66.81 2.43398 68.68 0.000976562Z" fill="black"/>
</g>
</g>
<g style="mix-blend-mode:multiply" opacity="0.25">
<g style="mix-blend-mode:multiply">
<path d="M110.161 0.000976562C110.011 0.240977 109.861 0.480968 109.701 0.710968C108.201 3.05097 106.651 5.37098 105.121 7.69098C103.451 10.251 101.721 12.791 100.011 15.331C96.5915 20.4097 93.1381 25.4697 89.6515 30.511L84.4015 38.061V36.681L67.9915 60.061L67.9215 60.171H41.4805C45.8905 59.981 50.2905 59.9 54.7005 59.761L67.5805 59.541C69.2305 57.091 70.9205 54.66 72.5905 52.221L77.8405 44.681L83.1105 37.15L88.4205 29.65C91.9705 24.66 95.5605 19.6933 99.1905 14.75C100.99 12.279 102.79 9.79998 104.64 7.34998C106.47 4.89098 108.29 2.43398 110.161 0.000976562Z" fill="black"/>
</g>
</g>
<g style="mix-blend-mode:multiply" opacity="0.25">
<g style="mix-blend-mode:multiply">
<path d="M109.7 16.8711V60.0611H84.4004C86.5104 59.9311 88.6204 59.8511 90.7304 59.7611C92.8404 59.6711 94.9404 59.6111 97.0504 59.5411C101.02 59.4311 104.98 59.3711 108.95 59.3211C108.92 55.9701 108.9 52.6211 108.91 49.2611C108.92 45.6611 108.94 42.0611 109 38.4611C109.06 34.8611 109.12 31.2701 109.24 27.6711C109.28 25.8711 109.36 24.0711 109.44 22.2711C109.47 21.3711 109.51 20.4821 109.55 19.5821C109.59 18.6821 109.64 17.7701 109.7 16.8711Z" fill="black"/>
</g>
</g>
<g style="mix-blend-mode:overlay">
<g style="mix-blend-mode:overlay">
<path d="M102.361 0.00100708C99.2513 0.160008 96.1413 0.230998 93.0413 0.350998C90.0313 0.450998 87.0313 0.491005 84.0313 0.561005C82.5613 2.75101 81.1013 4.941 79.6013 7.101L74.9513 13.841L70.2613 20.551L65.5413 27.241L60.7613 33.891L55.9313 40.491C54.3113 42.691 52.7113 44.9 51.0613 47.071C49.4113 49.242 47.7913 51.431 46.1113 53.581L67.9913 22.4L83.7213 0L102.361 0.00100708Z" fill="white"/>
</g>
</g>
<g style="mix-blend-mode:overlay">
<g style="mix-blend-mode:overlay">
<path d="M64.361 0.000976562C60.671 0.180977 56.981 0.260971 53.301 0.400971L42.581 0.621979C41.131 2.77098 39.651 4.90097 38.191 7.05197L33.581 13.701L28.931 20.332L24.251 26.932L19.531 33.502L14.751 40.031C13.151 42.212 11.571 44.392 9.93102 46.542C8.31102 48.701 6.69102 50.862 5.04102 53.002C5.06102 52.962 5.09102 52.932 5.11102 52.892L42.241 0.00196838L64.361 0.000976562Z" fill="white"/>
</g>
</g>
<defs>
<linearGradient id="paint0_linear_88_39" x1="55.3404" y1="50.1738" x2="55.3404" y2="18.4449" gradientUnits="userSpaceOnUse">
<stop stop-color="#F58033"/>
<stop offset="1" stop-color="#A53826"/>
</linearGradient>
<linearGradient id="paint1_linear_88_39" x1="97.0504" y1="59.5264" x2="97.0504" y2="17.8135" gradientUnits="userSpaceOnUse">
<stop stop-color="#00F3FF"/>
<stop offset="0.238" stop-color="#00EFFC"/>
<stop offset="0.44" stop-color="#00E5F4"/>
<stop offset="0.629" stop-color="#00D3E7"/>
<stop offset="0.81" stop-color="#00BAD4"/>
<stop offset="0.983" stop-color="#009BBC"/>
<stop offset="1" stop-color="#0098BA"/>
</linearGradient>
<linearGradient id="paint2_linear_88_39" x1="26.9231" y1="26.536" x2="58.1682" y2="-11.3566" gradientUnits="userSpaceOnUse">
<stop stop-color="#F804DE"/>
<stop offset="0.074" stop-color="#F803CC"/>
<stop offset="0.293" stop-color="#F9029D"/>
<stop offset="0.501" stop-color="#FA0178"/>
<stop offset="0.695" stop-color="#FB005D"/>
<stop offset="0.867" stop-color="#FB004D"/>
<stop offset="1" stop-color="#FC0048"/>
</linearGradient>
<linearGradient id="paint3_linear_88_39" x1="0" y1="30.086" x2="68.68" y2="30.086" gradientUnits="userSpaceOnUse">
<stop stop-color="#F804DE"/>
<stop offset="0.074" stop-color="#F803CC"/>
<stop offset="0.293" stop-color="#F9029D"/>
<stop offset="0.501" stop-color="#FA0178"/>
<stop offset="0.695" stop-color="#FB005D"/>
<stop offset="0.867" stop-color="#FB004D"/>
<stop offset="1" stop-color="#FC0048"/>
</linearGradient>
<linearGradient id="paint4_linear_88_39" x1="75.272" y1="25.8745" x2="102.245" y2="-16.049" gradientUnits="userSpaceOnUse">
<stop stop-color="#FCFC53"/>
<stop offset="1" stop-color="#F8A700"/>
</linearGradient>
<linearGradient id="paint5_linear_88_39" x1="41.4805" y1="30.086" x2="110.161" y2="30.086" gradientUnits="userSpaceOnUse">
<stop stop-color="#FCFC53"/>
<stop offset="1" stop-color="#F8A700"/>
</linearGradient>
</defs>
</svg>
